HIERARCHY
ROOT hip
{
  OFFSET 0 0 0
  CHANNELS 6 Xposition Yposition Zposition Zrotation Yrotation Xrotation
  JOINT abdomen
  {
    OFFSET 0 20.6881 -0.73152
    CHANNELS 3 Zrotation Xrotation Yrotation
    JOINT chest
    {
      OFFSET 0 11.7043 -0.48768
      CHANNELS 3 Zrotation Xrotation Yrotation
      JOINT neck
      {
        OFFSET 0 22.1894 -2.19456
        CHANNELS 3 Zrotation Xrotation Yrotation
        JOINT head
        {
          OFFSET -0.24384 7.07133 1.2192
          CHANNELS 3 Zrotation Xrotation Yrotation
          JOINT leftEye
          {
            OFFSET 4.14528 8.04674 8.04672
            CHANNELS 3 Zrotation Xrotation Yrotation
            End Site
            {
              OFFSET 1 0 0
            }
          }
          JOINT rightEye
          {
            OFFSET -3.6576 8.04674 8.04672
            CHANNELS 3 Zrotation Xrotation Yrotation
            End Site
            {
              OFFSET 1 0 0
            }
          }
        }
      }
      JOINT rCollar
      {
        OFFSET -2.68224 19.2634 -4.8768
        CHANNELS 3 Zrotation Xrotation Yrotation
        JOINT rShldr
        {
          OFFSET -8.77824 -1.95073 1.46304
          CHANNELS 3 Zrotation Xrotation Yrotation
          JOINT rForeArm
          {
            OFFSET -28.1742 -1.7115 0.48768
            CHANNELS 3 Zrotation Xrotation Yrotation
            JOINT rHand
            {
              OFFSET -22.5879 0.773209 7.07136
              CHANNELS 3 Zrotation Xrotation Yrotation
              JOINT rThumb1
              {
                OFFSET -1.2192 -0.487915 3.41376
                CHANNELS 3 Zrotation Xrotation Yrotation
                JOINT rThumb2
                {
                  OFFSET -3.37035 -0.52449 3.41376
                  CHANNELS 3 Zrotation Xrotation Yrotation
                  End Site
                  {
                    OFFSET -1.78271 -1.18214 1.43049
                  }
                }
              }
              JOINT rIndex1
              {
                OFFSET -7.75947 0.938293 5.60832
                CHANNELS 3 Zrotation Xrotation Yrotation
                JOINT rIndex2
                {
                  OFFSET -2.54057 -0.884171 1.56538
                  CHANNELS 3 Zrotation Xrotation Yrotation
                  End Site
                  {
                    OFFSET -1.62519 -0.234802 1.16502
                  }
                }
              }
              JOINT rMid1
              {
                OFFSET -8.24714 1.18213 3.41376
                CHANNELS 3 Zrotation Xrotation Yrotation
                JOINT rMid2
                {
                  OFFSET -3.10165 -0.590103 1.0647
                  CHANNELS 3 Zrotation Xrotation Yrotation
                  End Site
                  {
                    OFFSET -2.48547 -0.328903 0.83742
                  }
                }
              }
              JOINT rRing1
              {
                OFFSET -8.82822 0.546677 1.51678
                CHANNELS 3 Zrotation Xrotation Yrotation
                JOINT rRing2
                {
                  OFFSET -2.60934 -0.819778 -0.0198488
                  CHANNELS 3 Zrotation Xrotation Yrotation
                  End Site
                  {
                    OFFSET -2.33842 -0.294052 0.168128
                  }
                }
              }
              JOINT rPinky1
              {
                OFFSET -8.27202 -0.0477905 -0.4584
                CHANNELS 3 Zrotation Xrotation Yrotation
                JOINT rPinky2
                {
                  OFFSET -1.82734 -0.647385 -0.700984
                  CHANNELS 3 Zrotation Xrotation Yrotation
                  End Site
                  {
                    OFFSET -1.69225 -0.51767 -0.607171
                  }
                }
              }
            }
          }
        }
      }
      JOINT lCollar
      {
        OFFSET 2.68224 19.2634 -4.8768
        CHANNELS 3 Zrotation Xrotation Yrotation
        JOINT lShldr
        {
          OFFSET 8.77824 -1.95073 1.46304
          CHANNELS 3 Zrotation Xrotation Yrotation
          JOINT lForeArm
          {
            OFFSET 28.1742 -1.7115 0.48768
            CHANNELS 3 Zrotation Xrotation Yrotation
            JOINT lHand
            {
              OFFSET 22.5879 0.773209 7.07136
              CHANNELS 3 Zrotation Xrotation Yrotation
              JOINT lThumb1
              {
                OFFSET 1.2192 -0.487915 3.41376
                CHANNELS 3 Zrotation Xrotation Yrotation
                JOINT lThumb2
                {
                  OFFSET 3.37035 -0.52449 3.41376
                  CHANNELS 3 Zrotation Xrotation Yrotation
                  End Site
                  {
                    OFFSET 1.78271 -1.18214 1.43049
                  }
                }
              }
              JOINT lIndex1
              {
                OFFSET 7.75947 0.938293 5.60832
                CHANNELS 3 Zrotation Xrotation Yrotation
                JOINT lIndex2
                {
                  OFFSET 2.54057 -0.884171 1.56538
                  CHANNELS 3 Zrotation Xrotation Yrotation
                  End Site
                  {
                    OFFSET 1.62519 -0.234802 1.16502
                  }
                }
              }
              JOINT lMid1
              {
                OFFSET 8.24714 1.18213 3.41376
                CHANNELS 3 Zrotation Xrotation Yrotation
                JOINT lMid2
                {
                  OFFSET 3.10165 -0.590103 1.0647
                  CHANNELS 3 Zrotation Xrotation Yrotation
                  End Site
                  {
                    OFFSET 2.48547 -0.328903 0.83742
                  }
                }
              }
              JOINT lRing1
              {
                OFFSET 8.82822 0.546677 1.51678
                CHANNELS 3 Zrotation Xrotation Yrotation
                JOINT lRing2
                {
                  OFFSET 2.60934 -0.819778 -0.0198488
                  CHANNELS 3 Zrotation Xrotation Yrotation
                  End Site
                  {
                    OFFSET 2.33842 -0.294052 0.168128
                  }
                }
              }
              JOINT lPinky1
              {
                OFFSET 8.27202 -0.0477905 -0.4584
                CHANNELS 3 Zrotation Xrotation Yrotation
                JOINT lPinky2
                {
                  OFFSET 1.82734 -0.647385 -0.700984
                  CHANNELS 3 Zrotation Xrotation Yrotation
                  End Site
                  {
                    OFFSET 1.69225 -0.51767 -0.607171
                  }
                }
              }
            }
          }
        }
      }
    }
  }
  JOINT rButtock
  {
    OFFSET -8.77824 4.35084 1.2192
    CHANNELS 3 Zrotation Xrotation Yrotation
    JOINT rThigh
    {
      OFFSET 0 -1.70687 -2.19456
      CHANNELS 3 Zrotation Xrotation Yrotation
      JOINT rShin
      {
        OFFSET 0 -36.8199 0.73152
        CHANNELS 3 Zrotation Xrotation Yrotation
        JOINT rFoot
        {
          OFFSET 0.73152 -45.1104 -5.12064
          CHANNELS 3 Zrotation Xrotation Yrotation
          End Site
          {
            OFFSET -1.1221 -3.69964 12.103
          }
        }
      }
    }
  }
  JOINT lButtock
  {
    OFFSET 8.77824 4.35084 1.2192
    CHANNELS 3 Zrotation Xrotation Yrotation
    JOINT lThigh
    {
      OFFSET 0 -1.70687 -2.19456
      CHANNELS 3 Zrotation Xrotation Yrotation
      JOINT lShin
      {
        OFFSET 0 -36.8199 0.73152
        CHANNELS 3 Zrotation Xrotation Yrotation
        JOINT lFoot
        {
          OFFSET -0.73152 -45.1104 -5.12064
          CHANNELS 3 Zrotation Xrotation Yrotation
          End Site
          {
            OFFSET 1.1221 -3.69964 12.103
          }
        }
      }
    }
  }
}
MOTION
Frames:	4
Frame Time:	0.03333
0.8953378553112074 59.84555060195061 4.4424470569671035 6.72818660736084 27.840513229370117 12.252436637878418 -9.501567840576172 9.823929786682129 -4.720306873321533 4.8645548820495605 -12.02449893951416 -0.9991501569747925 -8.17153263092041 16.140317916870117 -10.68083667755127 13.287644386291504 -33.330238342285156 -17.42164421081543 -0.013521452434360981 0.0227253008633852 -0.15737412869930267 0.039786890149116516 0.06686016172170639 -0.18512628972530365 0.41601788997650146 0.023312360048294067 0.03326747938990593 49.65496063232422 6.515952110290527 28.954063415527344 -25.16971206665039 -21.089134216308594 52.785709381103516 -0.5691651701927185 11.985401153564453 1.7704685926437378 0.18582119047641754 0.004274169914424419 -0.05906585976481438 0.041542887687683105 0.04611677676439285 -0.09438024461269379 -0.25064462423324585 0.17535802721977234 -0.14478395879268646 7.703036785125732 5.357988357543945 0.3397614061832428 0.13249236345291138 0.08830424398183823 -0.18427179753780365 2.913311243057251 0.9581588506698608 0.07275740057229996 -0.18876908719539642 0.11929076164960861 0.049170996993780136 10.263792037963867 0.7144827842712402 -0.13220670819282532 0.09580668807029724 0.12490451335906982 0.05732644349336624 2.321193218231201 -0.7015370726585388 -0.3647444248199463 -0.08949898928403854 0.06325801461935043 -0.20093603432178497 -23.751773834228516 63.934654235839844 -66.33187103271484 27.8416805267334 -29.533485412597656 -66.67149353027344 13.808087348937988 -68.65541076660156 20.532062530517578 -0.07674433290958405 -0.1563040316104889 -0.18361248075962067 -0.13801512122154236 -0.03913486748933792 -0.09351025521755219 -0.04826701804995537 -0.12376892566680908 -0.010987826623022556 -7.43181037902832 5.487886428833008 -0.42658597230911255 -0.10798174887895584 0.015094185248017311 -0.023780154064297676 -3.056675910949707 1.0970468521118164 -0.06072895601391792 -0.09362062066793442 -0.033763669431209564 0.08485428988933563 -10.281383514404297 0.5779465436935425 -0.10870326310396194 -0.061497319489717484 0.0101268095895648 -0.0036187164951115847 -2.3880579471588135 -0.6080502271652222 0.28378307819366455 0.05498882755637169 -0.18155723810195923 0.0006766845472157001 -61.676700592041016 -53.14248275756836 -72.74251556396484 -2.0416133403778076 70.7218017578125 2.5901381969451904 -5.53904390335083 -3.3575050830841064 -25.57297706604004 -0.12325289100408554 -0.07471238821744919 0.07241114974021912 17.392488479614258 -10.972823143005371 29.03607749938965 0.2705276906490326 60.082969665527344 -3.0122857093811035 6.488236904144287 -13.89051342010498 28.1684627532959
0.8364513260210895 60.24916697057418 5.432936330966611 6.217426300048828 25.69761848449707 12.11963939666748 -9.079547882080078 10.016894340515137 -4.674490451812744 4.846559524536133 -11.934843063354492 -1.0109657049179077 -7.965517044067383 15.752796173095703 -10.0076904296875 12.838245391845703 -33.2169189453125 -16.174997329711914 -0.013327638618648052 0.045221880078315735 -0.13851048052310944 0.03879847005009651 0.07388277351856232 -0.1453879028558731 0.3945642411708832 0.05783805996179581 0.05790996924042702 48.95769119262695 7.69136905670166 30.105823516845703 -24.70636749267578 -20.089862823486328 51.2561149597168 -0.5250149369239807 11.186790466308594 1.616493821144104 0.144326850771904 0.027542879804968834 -0.04450647905468941 0.044079430401325226 0.010384811088442802 -0.09591007977724075 -0.26878705620765686 0.14673814177513123 -0.15782375633716583 7.653210163116455 5.366634368896484 0.30988606810569763 0.08920793980360031 0.12880800664424896 -0.15509234368801117 2.9176735877990723 0.9543613791465759 0.04920990765094757 -0.21720711886882782 0.1323080211877823 0.030323278158903122 10.266834259033203 0.6988007426261902 -0.1511668562889099 0.06575967371463776 0.12096140533685684 0.07742089778184891 2.331923723220825 -0.7523811459541321 -0.37529730796813965 -0.07744838297367096 0.07366035133600235 -0.1327732503414154 -20.102258682250977 61.83072280883789 -71.65354919433594 28.001270294189453 -30.303525924682617 -68.1269302368164 12.515921592712402 -67.35415649414062 19.094558715820312 -0.045583926141262054 -0.17035828530788422 -0.13665126264095306 -0.1511281132698059 -0.0056239706464111805 -0.08115985244512558 0.0015588599490001798 -0.13833512365818024 0.01315686572343111 -7.435663223266602 5.4943528175354 -0.4391004145145416 -0.09385906159877777 -0.013384494930505753 -0.04249065741896629 -3.0780789852142334 1.1155471801757812 -0.04896191135048866 -0.10078275948762894 -0.060655586421489716 0.10106964409351349 -10.300155639648438 0.5165997743606567 -0.06416292488574982 -0.1227903887629509 0.055828023701906204 0.0004583359695971012 -2.33414363861084 -0.6213523149490356 0.2591678500175476 0.09047074615955353 -0.19727371633052826 -0.032575469464063644 -59.17795181274414 -53.68376922607422 -70.86314392089844 -1.781998634338379 70.36925506591797 2.370234251022339 -5.328904151916504 -3.4168293476104736 -24.56714630126953 -0.09398575127124786 -0.06590422987937927 0.06699652224779129 16.687946319580078 -10.196829795837402 26.833864212036133 0.2786242961883545 61.121036529541016 -2.911113739013672 5.245521545410156 -11.18797492980957 26.528549194335938
0.7567363483004294 60.68685915296693 6.440424238262988 5.441306114196777 23.57550811767578 11.679058074951172 -8.252751350402832 10.361961364746094 -4.575477600097656 4.764611721038818 -11.843915939331055 -0.9941568374633789 -7.6674041748046875 15.415188789367676 -9.216484069824219 12.391500473022461 -33.19182205200195 -14.656161308288574 -0.0048765139654278755 0.06236787885427475 -0.10668181627988815 0.03869244456291199 0.08633890002965927 -0.09613395482301712 0.29980412125587463 0.09211625158786774 0.07402452081441879 48.07754898071289 9.032615661621094 31.86797332763672 -24.18303680419922 -19.095842361450195 49.83478927612305 -0.4539777338504791 10.415631294250488 1.468786358833313 0.09922119975090027 0.06851675361394882 -0.015584717504680157 0.033471692353487015 -0.02171100489795208 -0.10697918385267258 -0.2766702473163605 0.12437853962182999 -0.18332774937152863 7.611881256103516 5.3906354904174805 0.27925530076026917 0.04769664630293846 0.14816781878471375 -0.10836803168058395 2.9244070053100586 0.9533457159996033 0.026456056162714958 -0.2569138705730438 0.12818478047847748 0.010082964785397053 10.273478507995605 0.6915357708930969 -0.14249774813652039 0.05210215598344803 0.08976231515407562 0.10577970743179321 2.3467535972595215 -0.7923607230186462 -0.3548995554447174 -0.06646435707807541 0.07422924041748047 -0.05994127318263054 -15.965193748474121 59.27934646606445 -77.70875549316406 28.139768600463867 -31.353099822998047 -70.06488037109375 11.07249927520752 -65.5719985961914 17.43597984313965 -0.02388722449541092 -0.18432043492794037 -0.06773853302001953 -0.14230038225650787 0.027924399822950363 -0.07202675193548203 0.04192890226840973 -0.16086874902248383 0.04436391592025757 -7.439197540283203 5.52669095993042 -0.4442671835422516 -0.06260848045349121 -0.04942190647125244 -0.06523624807596207 -3.0856268405914307 1.139754295349121 -0.048959676176309586 -0.0968666821718216 -0.09897006303071976 0.11624042689800262 -10.297703742980957 0.470478355884552 -0.008691474795341492 -0.17335055768489838 0.11652220785617828 0.005746148526668549 -2.2741026878356934 -0.6466458439826965 0.25344496965408325 0.12737172842025757 -0.2043265700340271 -0.06340807676315308 -55.61160659790039 -54.276023864746094 -67.97883605957031 -1.4358644485473633 69.70915222167969 2.0131120681762695 -5.244389533996582 -3.366611957550049 -23.640525817871094 -0.03936134651303291 -0.0749855786561966 0.04490400850772858 16.050724029541016 -10.234603881835938 24.31150245666504 0.38841986656188965 63.66600799560547 -2.876443862915039 3.9668331146240234 -8.366600036621094 24.03888702392578
0.6405404764490849 61.01314411980761 7.464332774097723 4.454739570617676 21.37347984313965 11.069192886352539 -7.15228271484375 10.862048149108887 -4.444065570831299 4.619256019592285 -11.766068458557129 -0.947911262512207 -7.280529975891113 15.147283554077148 -8.263422966003418 11.963764190673828 -33.28779983520508 -12.839339256286621 0.0010260801063850522 0.07182437181472778 -0.06625516712665558 0.04706678166985512 0.09847979247570038 -0.04670308530330658 0.16320787370204926 0.1239408403635025 0.07610546052455902 46.87938690185547 10.60243034362793 34.191463470458984 -23.644744873046875 -18.16183853149414 48.48006057739258 -0.38266196846961975 9.860837936401367 1.3639971017837524 0.06780637800693512 0.12265582382678986 0.02174263633787632 0.01596406102180481 -0.04978013411164284 -0.11605049669742584 -0.2679651379585266 0.11274344474077225 -0.2200780063867569 7.587706565856934 5.412407875061035 0.2610304057598114 0.008342824876308441 0.127191424369812 -0.05674220621585846 2.9349169731140137 0.9639551043510437 0.00226885755546391 -0.2960602641105652 0.11160315573215485 -0.005810791160911322 10.289288520812988 0.6892704963684082 -0.10688559710979462 0.06032232195138931 0.03877728804945946 0.13052862882614136 2.358020067214966 -0.8085418343544006 -0.3029720187187195 -0.06584347784519196 0.05712844058871269 -0.003817299846559763 -11.58064079284668 56.02555847167969 -84.23881530761719 28.237953186035156 -32.69361877441406 -72.43431091308594 9.659358024597168 -63.41586685180664 15.784269332885742 -0.007902042008936405 -0.1895456314086914 0.016299588605761528 -0.10714676976203918 0.05960334837436676 -0.06724758446216583 0.06438007950782776 -0.18672911822795868 0.07727324217557907 -7.433377265930176 5.574563026428223 -0.43873679637908936 -0.014453540556132793 -0.09448595345020294 -0.09614063799381256 -3.0693721771240234 1.1641064882278442 -0.059575777500867844 -0.08658234030008316 -0.14191405475139618 0.1311798244714737 -10.271317481994629 0.45097172260284424 0.048131681978702545 -0.20881350338459015 0.1724373996257782 0.011866207234561443 -2.2159900665283203 -0.6753898859024048 0.2646622955799103 0.15364521741867065 -0.20198610424995422 -0.08425815403461456 -51.31168746948242 -54.935401916503906 -64.56494903564453 -1.1167820692062378 68.99872589111328 1.6120175123214722 -5.276583671569824 -3.280082941055298 -22.93814468383789 0.02725142054259777 -0.09827447682619095 0.006806986406445503 15.436341285705566 -11.152425765991211 21.543996810913086 0.6425518989562988 67.65491485595703 -2.9696879386901855 2.765273094177246 -5.755915641784668 20.928909301757812
